<mxfile host="app.diagrams.net" modified="2024-04-16T19:57:22.053Z" agent="Mozilla/5.0 (X11; Linux x86_64) AppleWebKit/537.36 (KHTML, like Gecko) Chrome/120.0.0.0 Safari/537.36" version="24.2.5" etag="hdxNsNbwcjyRK23c8Gg_" type="github">
  <diagram name="Page-1" id="oraBLW6zk9mcWWjab241">
    <mxGraphModel>
      <root>
        <mxCell id="0" />
        <mxCell id="1" parent="0" />
      </root>
    </mxGraphModel>
  </diagram>
</mxfile>
